<svg xmlns="http://www.w3.org/2000/svg" width="128" height="128"><svg xmlns="http://www.w3.org/2000/svg" xmlns:xlink="http://www.w3.org/1999/xlink" width="128" height="133" data-background-color="#ffffff" transform="matrix(.80469 0 0 .80469 12.028 10.199)" viewBox="0 0 92 96"><svg width="91.157" height="95.481" transform="translate(.422 .26)" viewBox="0 0 91.157 95.481"><svg width="91.157" height="95.481" viewBox="0 0 91.157 95.481"><svg width="91.157" height="95.481" viewBox="0 0 91.157 95.481"><svg width="91.157" height="95.481" viewBox="0 0 91.157 95.481"><svg width="91.157" height="95.481" viewBox="0 0 91.157 95.481"><svg width="91.157" height="95.481" viewBox="0 0 91.157 95.481"><svg xmlns="http://www.w3.org/2000/svg" xmlns:xlink="http://www.w3.org/1999/xlink" xml:space="preserve" width="91.157" height="95.481" class="icon-icon-0" data-fill-palette-color="accent" version="1.0" viewBox="0 0 95.471 100"><path fill="#915eff" d="M47.735 0c-.083 2.825-1.738 13.412-19.799 30.934C10.554 47.797 2.439 49.824 0 50c2.439.178 10.554 2.204 27.936 19.066C45.997 86.589 47.652 97.177 47.735 100c.083-2.823 1.739-13.411 19.798-30.934C84.917 52.204 93.031 50.178 95.471 50c-2.439-.176-10.554-2.203-27.938-19.066C49.475 13.412 47.819 2.825 47.735 0" data-fill-palette-color="accent"/></svg></svg></svg></svg></svg></svg></svg></svg></svg>