<svg xmlns="http://www.w3.org/2000/svg" version="1.1" xmlns:xlink="http://www.w3.org/1999/xlink" xmlns:svgjs="http://svgjs.dev/svgjs" width="128" height="128" viewBox="0 0 128 128"><g transform="matrix(0.8046875,0,0,0.8046875,12.027916019184786,10.19898352050781)"><svg viewBox="0 0 92 96" data-background-color="#ffffff" preserveAspectRatio="xMidYMid meet" height="133" width="128" xmlns="http://www.w3.org/2000/svg" xmlns:xlink="http://www.w3.org/1999/xlink"><g id="tight-bounds" transform="matrix(1,0,0,1,0.42166724499999475,0.25950000000000273)"><svg viewBox="0 0 91.15666551 95.481" height="95.481" width="91.15666551"><g><svg viewBox="0 0 91.15666551 95.481" height="95.481" width="91.15666551"><g><svg viewBox="0 0 91.15666551 95.481" height="95.481" width="91.15666551"><g id="textblocktransform"><svg viewBox="0 0 91.15666551 95.481" height="95.481" width="91.15666551" id="textblock"><g><svg viewBox="0 0 91.15666551 95.481" height="95.481" width="91.15666551"><g><svg viewBox="0 0 91.15666551 95.481" height="95.481" width="91.15666551"><g><svg version="1.0" xmlns="http://www.w3.org/2000/svg" xmlns:xlink="http://www.w3.org/1999/xlink" x="0" y="0" viewBox="0 0 95.471 100" enable-background="new 0 0 95.471 100" xml:space="preserve" id="icon-0" width="91.15666551" height="95.481" class="icon-icon-0" data-fill-palette-color="accent"><path d="M47.735 0C47.652 2.825 45.997 13.412 27.936 30.934 10.554 47.797 2.439 49.824 0 50 2.439 50.178 10.554 52.204 27.936 69.066 45.997 86.589 47.652 97.177 47.735 100 47.818 97.177 49.474 86.589 67.533 69.066 84.917 52.204 93.031 50.178 95.471 50 93.032 49.824 84.917 47.797 67.533 30.934 49.475 13.412 47.819 2.825 47.735 0" fill="#915eff" data-fill-palette-color="accent"></path></svg></g></svg></g></svg></g></svg></g></svg></g></svg></g><defs></defs></svg><rect width="91.15666551" height="95.481" fill="none" stroke="none" visibility="hidden"></rect></g></svg></g></svg>