<svg xmlns="http://www.w3.org/2000/svg" version="1.1" xmlns:xlink="http://www.w3.org/1999/xlink" xmlns:svgjs="http://svgjs.dev/svgjs" width="2000" height="1500" viewBox="0 0 2000 1500"><rect width="2000" height="1500" fill="#ffffff"></rect><g transform="matrix(0.75,0,0,0.75,249.090909090909,600.0515086786758)"><svg viewBox="0 0 396 79" data-background-color="#ffffff" preserveAspectRatio="xMidYMid meet" height="398" width="2000" xmlns="http://www.w3.org/2000/svg" xmlns:xlink="http://www.w3.org/1999/xlink"><g id="tight-bounds" transform="matrix(1,0,0,1,0.24000000000003752,0.18486034969720322)"><svg viewBox="0 0 395.5199999999999 78.63027930060558" height="78.63027930060558" width="395.5199999999999"><g><svg viewBox="0 0 565.1021667928385 112.34360135593218" height="78.63027930060558" width="395.5199999999999"><g><rect width="10.080857620770711" height="112.34360135593218" x="133.11162953654235" y="0" fill="#915eff" opacity="1" stroke-width="0" stroke="transparent" fill-opacity="1" class="rect-yte-0" data-fill-palette-color="primary" rx="1%" id="yte-0" data-palette-color="#915eff"></rect></g><g transform="matrix(1,0,0,1,169.58216679283848,0.2794616949152484)"><svg viewBox="0 0 395.52 111.78467796610168" height="111.78467796610168" width="395.52"><g id="textblocktransform"><svg viewBox="0 0 395.52 111.78467796610168" height="111.78467796610168" width="395.52" id="textblock"><g><svg viewBox="0 0 395.52 111.78467796610168" height="111.78467796610168" width="395.52"><g transform="matrix(1,0,0,1,0,0)"><svg width="395.52" viewBox="2.98 -32.03 115.22999999999999 32.57" height="111.78467796610168" data-palette-color="#915eff"><path d="M25.46-28.98Q26.29-28.98 26.65-28.6 27-28.22 27-27.32L27-27.32 27-18.12Q27-17.26 26.59-16.89 26.17-16.53 25.17-16.53L25.17-16.53Q24.17-16.53 23.75-16.89 23.34-17.26 23.34-18.12L23.34-18.12 23.34-25.66 16.82-25.66 16.82-3.32 22.58-3.32Q23.41-3.32 23.77-2.94 24.12-2.56 24.12-1.66L24.12-1.66Q24.12-0.76 23.77-0.38 23.41 0 22.58 0L22.58 0 7.4 0Q6.57 0 6.21-0.38 5.86-0.76 5.86-1.66L5.86-1.66Q5.86-2.56 6.21-2.94 6.57-3.32 7.4-3.32L7.4-3.32 13.16-3.32 13.16-25.66 6.64-25.66 6.64-18.12Q6.64-17.26 6.23-16.89 5.81-16.53 4.81-16.53L4.81-16.53Q3.81-16.53 3.39-16.89 2.98-17.26 2.98-18.12L2.98-18.12 2.98-27.32Q2.98-28.22 3.33-28.6 3.69-28.98 4.52-28.98L4.52-28.98 25.46-28.98ZM45.07-23.1Q49.66-23.1 51.95-21.04 54.25-18.99 54.25-14.97L54.25-14.97 54.25-5.25Q54.25-3.32 55.86-3.32L55.86-3.32 56.71-3.32Q57.54-3.32 57.9-2.94 58.25-2.56 58.25-1.66L58.25-1.66Q58.25-0.76 57.9-0.38 57.54 0 56.71 0L56.71 0 55.15 0Q53.56 0 52.43-0.79 51.29-1.59 50.95-3.13L50.95-3.13Q48.95-1.37 46.62-0.42 44.28 0.54 41.67 0.54L41.67 0.54Q39.21 0.54 37.31-0.31 35.42-1.15 34.35-2.76 33.27-4.37 33.27-6.59L33.27-6.59Q33.27-10.45 36.03-12.29 38.79-14.14 43.16-14.14L43.16-14.14Q47.04-14.14 50.58-12.89L50.58-12.89 50.58-14.97Q50.58-17.33 49.25-18.44 47.92-19.56 44.97-19.56L44.97-19.56Q43.14-19.56 41.16-19.04 39.18-18.53 37.4-17.63L37.4-17.63Q36.98-17.41 36.64-17.41L36.64-17.41Q35.84-17.41 35.3-18.58L35.3-18.58Q35.03-19.17 35.03-19.56L35.03-19.56Q35.03-20.41 35.94-20.87L35.94-20.87Q37.99-21.95 40.34-22.52 42.7-23.1 45.07-23.1L45.07-23.1ZM43.19-10.69Q40.38-10.69 38.75-9.73 37.13-8.76 37.13-6.67L37.13-6.67Q37.13-4.88 38.36-3.89 39.6-2.91 41.82-2.91L41.82-2.91Q46.68-2.91 50.58-6.93L50.58-6.93 50.58-9.59Q48.92-10.13 47.02-10.41 45.11-10.69 43.19-10.69L43.19-10.69ZM67.74-32.03Q68.57-32.03 68.93-31.65 69.28-31.27 69.28-30.37L69.28-30.37 69.28-18.21Q70.87-20.58 72.96-21.84 75.04-23.1 77.46-23.1L77.46-23.1Q79.68-23.1 81.32-22.13 82.95-21.17 83.83-19.36 84.71-17.55 84.71-15.14L84.71-15.14 84.71-3.32 86.71-3.32Q87.54-3.32 87.9-2.94 88.25-2.56 88.25-1.66L88.25-1.66Q88.25-0.76 87.9-0.38 87.54 0 86.71 0L86.71 0 78.8 0Q77.97 0 77.62-0.38 77.27-0.76 77.27-1.66L77.27-1.66Q77.27-2.56 77.62-2.94 77.97-3.32 78.8-3.32L78.8-3.32 81.05-3.32 81.05-14.77Q81.05-16.94 80.05-18.21 79.05-19.48 77.09-19.48L77.09-19.48Q75.02-19.48 73.22-18.29 71.43-17.09 70.36-14.99 69.28-12.89 69.28-10.3L69.28-10.3 69.28-3.32 71.53-3.32Q72.36-3.32 72.71-2.94 73.07-2.56 73.07-1.66L73.07-1.66Q73.07-0.76 72.71-0.38 72.36 0 71.53 0L71.53 0 63.62 0Q62.79 0 62.43-0.38 62.08-0.76 62.08-1.66L62.08-1.66Q62.08-2.56 62.43-2.94 62.79-3.32 63.62-3.32L63.62-3.32 65.62-3.32 65.62-28.71 63.37-28.71Q62.54-28.71 62.19-29.09 61.84-29.47 61.84-30.37L61.84-30.37Q61.84-31.27 62.19-31.65 62.54-32.03 63.37-32.03L63.37-32.03 67.74-32.03ZM105.02-23.1Q109.61-23.1 111.91-21.04 114.2-18.99 114.2-14.97L114.2-14.97 114.2-5.25Q114.2-3.32 115.81-3.32L115.81-3.32 116.67-3.32Q117.5-3.32 117.85-2.94 118.21-2.56 118.21-1.66L118.21-1.66Q118.21-0.76 117.85-0.38 117.5 0 116.67 0L116.67 0 115.1 0Q113.52 0 112.38-0.79 111.25-1.59 110.91-3.13L110.91-3.13Q108.9-1.37 106.57-0.42 104.24 0.54 101.63 0.54L101.63 0.54Q99.16 0.54 97.27-0.31 95.38-1.15 94.3-2.76 93.23-4.37 93.23-6.59L93.23-6.59Q93.23-10.45 95.99-12.29 98.75-14.14 103.12-14.14L103.12-14.14Q107-14.14 110.54-12.89L110.54-12.89 110.54-14.97Q110.54-17.33 109.21-18.44 107.88-19.56 104.92-19.56L104.92-19.56Q103.09-19.56 101.12-19.04 99.14-18.53 97.36-17.63L97.36-17.63Q96.94-17.41 96.6-17.41L96.6-17.41Q95.79-17.41 95.26-18.58L95.26-18.58Q94.99-19.17 94.99-19.56L94.99-19.56Q94.99-20.41 95.89-20.87L95.89-20.87Q97.94-21.95 100.3-22.52 102.65-23.1 105.02-23.1L105.02-23.1ZM103.14-10.69Q100.33-10.69 98.71-9.73 97.09-8.76 97.09-6.67L97.09-6.67Q97.09-4.88 98.32-3.89 99.55-2.91 101.77-2.91L101.77-2.91Q106.63-2.91 110.54-6.93L110.54-6.93 110.54-9.59Q108.88-10.13 106.97-10.41 105.07-10.69 103.14-10.69L103.14-10.69Z" opacity="1" transform="matrix(1,0,0,1,0,0)" fill="#915eff" class="wordmark-text-0" data-fill-palette-color="primary" id="text-0"></path></svg></g></svg></g></svg></g></svg></g><g transform="matrix(1,0,0,1,0,0.2794616949152555)"><svg viewBox="0 0 106.72194990101694 111.78467796610167" height="111.78467796610167" width="106.72194990101694"><g><svg version="1.0" xmlns="http://www.w3.org/2000/svg" xmlns:xlink="http://www.w3.org/1999/xlink" x="0" y="0" viewBox="0 0 95.471 100" enable-background="new 0 0 95.471 100" xml:space="preserve" id="icon-0" width="106.72194990101694" height="111.78467796610167" class="icon-icon-0" data-fill-palette-color="accent"><path d="M47.735 0C47.652 2.825 45.997 13.412 27.936 30.934 10.554 47.797 2.439 49.824 0 50 2.439 50.178 10.554 52.204 27.936 69.066 45.997 86.589 47.652 97.177 47.735 100 47.818 97.177 49.474 86.589 67.533 69.066 84.917 52.204 93.031 50.178 95.471 50 93.032 49.824 84.917 47.797 67.533 30.934 49.475 13.412 47.819 2.825 47.735 0" fill="#915eff" data-fill-palette-color="accent"></path></svg></g></svg></g></svg></g><defs></defs></svg><rect width="395.5199999999999" height="78.63027930060558" fill="none" stroke="none" visibility="hidden"></rect></g></svg></g></svg>